<svg xmlns="http://www.w3.org/2000/svg" width="20" height="20"><path d="M4.223 19.93a5.088 5.088 0 01-4.035-4.41c-.27-1.707-.293-9.637.199-11.356A5.169 5.169 0 014.8.223 40.683 40.683 0 019.87 0c1.883 0 3.79.047 4.93.117a5.55 5.55 0 013.691 1.508 5.304 5.304 0 011.625 3.457c.14 1.59.246 9.105-.222 10.871A5.193 5.193 0 0115.422 20c-1.852.18-3.715.254-5.574.223a34.284 34.284 0 01-5.625-.293zM5.305 1.977A3.485 3.485 0 002.07 5.023 67.659 67.659 0 002 15.246a3.288 3.288 0 002.492 2.86c1.805.25 3.63.351 5.45.292 2.117 0 4.199-.07 4.988-.152a3.455 3.455 0 003.234-3.058 71.56 71.56 0 00.129-9.942 3.411 3.411 0 00-3.035-3.223 47.525 47.525 0 00-5.059-.187c-2.011 0-4.011.047-4.894.14zm-.375 8.14a5.227 5.227 0 015.234-5.187c1.371 0 2.688.547 3.652 1.523a5.125 5.125 0 011.489 3.664 5.243 5.243 0 01-5.235 5.188 5.146 5.146 0 01-3.652-1.52 5.156 5.156 0 01-1.488-3.668zm1.824-.035a3.324 3.324 0 003.305 3.387h.023a3.387 3.387 0 003.387-3.317 3.307 3.307 0 00-.938-2.382 3.3 3.3 0 00-2.355-1.004h-.035a3.387 3.387 0 00-3.387 3.316zM14.34 4.73c0-.324.129-.632.355-.859.227-.226.535-.355.86-.351h.011a1.196 1.196 0 011.2 1.223 1.217 1.217 0 01-1.223 1.198 1.19 1.19 0 01-.855-.355 1.189 1.189 0 01-.348-.856zm0 0" fill="#888" id="surface1"/></svg>