<svg xmlns="http://www.w3.org/2000/svg" width="23" height="20" viewBox="0 0 22 20"><path d="M20.816 4.598c.141-.489 0-.848-.68-.848h-2.25c-.573 0-.835.309-.976.652 0 0-1.148 2.856-2.765 4.707-.524.536-.766.707-1.051.707-.14 0-.36-.171-.36-.66V4.598c0-.586-.16-.848-.632-.848h-3.54c-.359 0-.57.273-.57.527 0 .555.809.684.89 2.246v3.391c0 .742-.128.879-.413.879-.766 0-2.621-2.867-3.723-6.148-.219-.637-.437-.895-1.016-.895H1.48c-.64 0-.77.309-.77.652 0 .61.763 3.637 3.556 7.637 1.859 2.73 4.48 4.211 6.863 4.211 1.434 0 1.61-.328 1.61-.895 0-2.609-.13-2.855.585-2.855.336 0 .906.172 2.242 1.488 1.532 1.563 1.782 2.262 2.637 2.262h2.25c.64 0 .965-.328.777-.977-.425-1.363-3.316-4.168-3.445-4.355-.336-.438-.238-.633 0-1.023.004-.004 2.75-3.957 3.031-5.297zm0 0" id="surface1"/></svg>